<svg width="36" height="36" viewBox="0 0 36 36" fill="none" xmlns="http://www.w3.org/2000/svg">
<path d="M17.9 35.05C13.1333 35.05 9.09165 33.3917 5.77499 30.075C2.45832 26.7583 0.799988 22.7333 0.799988 18C0.799988 13.2667 2.45832 9.23333 5.77499 5.9C9.09165 2.56667 13.1333 0.9 17.9 0.9C20.8667 0.9 23.5167 1.5 25.85 2.7C28.1833 3.9 30.1833 5.61667 31.85 7.85V0.9H35.3V15.15H21V11.75H29.1C27.7667 9.81667 26.1917 8.28333 24.375 7.15C22.5583 6.01667 20.4 5.45 17.9 5.45C14.4 5.45 11.4333 6.65833 8.99999 9.075C6.56665 11.4917 5.34999 14.4667 5.34999 18C5.34999 21.5 6.56665 24.4583 8.99999 26.875C11.4333 29.2917 14.4 30.5 17.9 30.5C20.4667 30.5 22.85 29.7583 25.05 28.275C27.25 26.7917 28.8333 24.8167 29.8 22.35H34.5C33.4667 26.1167 31.4083 29.175 28.325 31.525C25.2417 33.875 21.7667 35.05 17.9 35.05Z" fill="#D9D9D9"/>
</svg>
