<svg width="40" height="40" viewBox="0 0 40 40" fill="none" xmlns="http://www.w3.org/2000/svg">
<path d="M15.4 40L14.4 33.7C13.7667 33.4667 13.1 33.15 12.4 32.75C11.7 32.35 11.0833 31.9333 10.55 31.5L4.65 34.2L0 26L5.4 22.05C5.33333 21.75 5.29167 21.4083 5.275 21.025C5.25833 20.6417 5.25 20.3 5.25 20C5.25 19.7 5.25833 19.3583 5.275 18.975C5.29167 18.5917 5.33333 18.25 5.4 17.95L0 14L4.65 5.8L10.55 8.5C11.0833 8.06667 11.7 7.65 12.4 7.25C13.1 6.85 13.7667 6.55 14.4 6.35L15.4 0H24.6L25.6 6.3C26.2333 6.53333 26.9083 6.84167 27.625 7.225C28.3417 7.60833 28.95 8.03333 29.45 8.5L35.35 5.8L40 14L34.6 17.85C34.6667 18.1833 34.7083 18.5417 34.725 18.925C34.7417 19.3083 34.75 19.6667 34.75 20C34.75 20.3333 34.7417 20.6833 34.725 21.05C34.7083 21.4167 34.6667 21.7667 34.6 22.1L40 26L35.35 34.2L29.45 31.5C28.9167 31.9333 28.3083 32.3583 27.625 32.775C26.9417 33.1917 26.2667 33.5 25.6 33.7L24.6 40H15.4ZM20 26.5C21.8 26.5 23.3333 25.8667 24.6 24.6C25.8667 23.3333 26.5 21.8 26.5 20C26.5 18.2 25.8667 16.6667 24.6 15.4C23.3333 14.1333 21.8 13.5 20 13.5C18.2 13.5 16.6667 14.1333 15.4 15.4C14.1333 16.6667 13.5 18.2 13.5 20C13.5 21.8 14.1333 23.3333 15.4 24.6C16.6667 25.8667 18.2 26.5 20 26.5Z" fill="#D9D9D9"/>
</svg>
